<?xml version="1.0" encoding="UTF-8" standalone="no"?>
<!DOCTYPE svg PUBLIC "-//W3C//DTD SVG 1.1//EN" "http://www.w3.org/Graphics/SVG/1.1/DTD/svg11.dtd">
<svg width="100%" height="100%" viewBox="0 0 32 32" version="1.1" xmlns="http://www.w3.org/2000/svg" xmlns:xlink="http://www.w3.org/1999/xlink" xml:space="preserve" xmlns:serif="http://www.serif.com/" style="fill-rule:evenodd;clip-rule:evenodd;stroke-linejoin:round;stroke-miterlimit:2;">
    <g transform="matrix(1.93076,0,0,1.93076,-9.22222,-9.59415)">
        <circle cx="13.063" cy="13.256" r="8.287" style="fill:white;"/>
        <path d="M13.063,4.969C17.637,4.969 21.35,8.682 21.35,13.256C21.35,17.83 17.637,21.543 13.063,21.543C8.49,21.543 4.776,17.83 4.776,13.256C4.776,8.682 8.49,4.969 13.063,4.969ZM13.063,5.15C17.537,5.15 21.17,8.782 21.17,13.256C21.17,17.73 17.537,21.362 13.063,21.362C8.589,21.362 4.957,17.73 4.957,13.256C4.957,8.782 8.589,5.15 13.063,5.15Z"/>
    </g>
    <g id="svgviewer-output.svg" transform="matrix(1.86915,0,0,1.72825,16.2196,16)">
        <g transform="matrix(1,0,0,1,-7,-6)">
            <g>
                <path d="M7.9,11.2L7.9,11.1C7.9,11.2 6.8,8.4 6.4,8C5.5,7.1 4.5,7.2 3.8,7.2L0.4,7.2C0.2,7.2 0,7.3 0,7.5L0,7.6C0,7.6 1.1,10.4 1.5,10.7C2.3,11.5 3,11.5 4.1,11.5L7.6,11.5C7.8,11.5 7.9,11.4 7.9,11.2Z" style="fill:rgb(39,37,36);fill-rule:nonzero;"/>
                <path d="M13.7,7.7C13.7,5.6 11.5,1 11.2,0.2C11.2,0.1 11.1,0 10.9,0C10.8,0 10.6,0.1 10.6,0.2C9.1,3.7 8,6.3 8,6.3C7.9,6.6 7.8,6.9 7.9,7.2C8,7.5 8.6,8.7 9,9.7C9.6,11.1 9.7,11.5 11,11.5C12.6,11.5 13.7,10.1 13.7,7.7Z" style="fill:rgb(39,37,36);fill-rule:nonzero;"/>
            </g>
        </g>
    </g>
</svg>
